<!-- icon666.com - MILLIONS vector ICONS FREE --><svg viewBox="0 0 512 512" xmlns="http://www.w3.org/2000/svg"><path d="m396.472656 353.417969c-16.722656-14.3125-38.070312-22.195313-60.109375-22.195313-35.847656 0-68.527343 21.015625-83.664062 53.042969-4.191407-1.386719-8.601563-2.105469-13.046875-2.105469-20.640625 0-37.8125 15.132813-41.007813 34.886719-15.175781 2.191406-29.246093 8.589844-41.015625 18.707031l9.773438 11.375c10.941406-9.40625 24.324218-14.863281 38.695312-15.785156l7.148438-.460938-.132813-7.164062v-.089844c.039063-14.601562 11.929688-26.46875 26.539063-26.46875 4.644531 0 9.226562 1.226563 13.238281 3.542969l7.699219 4.445313 3.085937-8.335938c11.199219-30.261719 40.410157-50.59375 72.6875-50.59375 18.464844 0 36.347657 6.605469 50.351563 18.59375zm0 0" fill="#000000" style="fill: rgb(52, 50, 50);"></path><path d="m334.550781 356.246094.410157 14.992187c4.347656-.117187 8.757812.316407 13.023437 1.285157l3.320313-14.628907c-5.484376-1.246093-11.15625-1.804687-16.753907-1.648437zm0 0" fill="#000000" style="fill: rgb(52, 50, 50);"></path><path d="m274.914062 395.777344 13.652344 6.214844c6.992188-15.363282 21.09375-26.5 37.714844-29.785157l-2.910156-14.714843c-21.347656 4.222656-39.464844 18.535156-48.457032 38.285156zm0 0" fill="#000000" style="fill: rgb(52, 50, 50);"></path><path d="m367.707031 381.605469 8.960938-12.03125c-4.511719-3.359375-9.4375-6.148438-14.652344-8.289063l-5.699219 13.875c4.054688 1.664063 7.882813 3.832032 11.390625 6.445313zm0 0" fill="#000000" style="fill: rgb(52, 50, 50);"></path><path d="m473.933594 308.71875c-2.882813-4.644531-6.21875-9.03125-9.917969-13.046875l-11.035156 10.160156c3.0625 3.324219 5.824219 6.957031 8.207031 10.800781zm0 0" fill="#000000" style="fill: rgb(52, 50, 50);"></path><path d="m435.300781 291.847656c3.941407 2.210938 7.691407 4.8125 11.144531 7.722656l9.671876-11.464843c-4.175782-3.519531-8.707032-6.664063-13.476563-9.339844zm0 0" fill="#000000" style="fill: rgb(52, 50, 50);"></path><path d="m432.398438 435.015625c15.90625-6.378906 29.488281-17.242187 39.273437-31.414063 10.027344-14.515624 15.328125-31.507812 15.328125-49.136718 0-12.542969-2.65625-24.691406-7.894531-36.113282l-13.636719 6.253907c4.335938 9.445312 6.53125 19.492187 6.53125 29.859375 0 29.464844-17.734375 55.617187-45.183594 66.628906zm0 0" fill="#000000" style="fill: rgb(52, 50, 50);"></path><path d="m293 51.496094h-73.992188v41.253906h73.992188zm-15 26.253906h-43.992188v-11.253906h43.992188zm0 0" fill="#000000" style="fill: rgb(52, 50, 50);"></path><path d="m215.519531 269.75h80.96875v15h-80.96875zm0 0" fill="#000000" style="fill: rgb(52, 50, 50);"></path><path d="m459.644531 259.796875c.363281-2.417969.546875-4.859375.546875-7.304687 0-27.125-22.070312-49.195313-49.195312-49.195313-.457032 0-.914063.007813-1.371094.019531-6.550781-16.589844-16.644531-31.847656-29.429688-44.410156l-10.511718 10.703125c12.539062 12.316406 22.144531 27.570313 27.785156 44.101563l2.03125 5.953124 6.214844-.960937c1.738281-.269531 3.515625-.40625 5.277344-.40625 18.855468 0 34.195312 15.339844 34.195312 34.195313 0 3.046874-.40625 6.085937-1.214844 9.039062l-1.542968 5.648438 5.105468 2.867187c30.511719 17.128906 49.464844 49.472656 49.464844 84.417969 0 53.082031-43.183594 96.476562-96.261719 96.738281l-4.007812.019531-2.210938 3.339844c-17.578125 26.574219-47.0625 42.4375-78.867187 42.4375-23.324219 0-45.726563-8.574219-63.074219-24.140625l-4.902344-4.398437-4.996093 4.292968c-3.183594 2.734375-7.246094 4.238282-11.4375 4.238282-4.671876 0-9.070313-1.8125-12.386719-5.109376l-4.308594-4.28125-5.082031 3.324219c-10.710938 7-23.160156 10.703125-36.011719 10.703125-21.066406 0-41.046875-10.214844-53.4375-27.320312l-2.246094-3.097656h-6.027343c-53.34375 0-96.742188-43.402344-96.742188-96.746094 0-50.875 39.730469-93.277344 90.449219-96.535156l7.109375-.457032-.09375-7.125-.003906-.214844c.035156-17.1875 10.925781-32.59375 27.113281-38.351562l-5.027344-14.132812c-20.074219 7.140624-34.1875 25.125-36.6875 45.9375-55.386719 6.875-97.859375 54.347656-97.859375 110.878906 0 61.105468 49.304688 110.917968 110.222656 111.734375 15.3125 19.121093 38.664063 30.425781 63.230469 30.425781 13.910156 0 27.441406-3.53125 39.464844-10.265625 5.363281 3.664063 11.695312 5.632813 18.324219 5.632813 5.578124 0 11.03125-1.4375 15.847656-4.121094 19.398437 15.601562 43.519531 24.128906 68.5625 24.128906 35.527344 0 68.550781-17.078125 89.125-45.886719 59.480468-2.386719 107.222656-51.664062 107.222656-111.648437 0-38.511719-19.925781-74.285156-52.355469-94.667969zm0 0" fill="#000000" style="fill: rgb(52, 50, 50);"></path><path d="m275.535156 344.097656v-41.261718h-39.070312v66.996093h15v-51.996093h9.070312v26.261718zm0 0" fill="#000000" style="fill: rgb(52, 50, 50);"></path><path d="m193.011719 386.476562h15v-134.726562h95.976562v69.988281h15v-69.988281h43.453125v-101.804688l-24.285156-24.285156h-45.085938l21.402344-21.398437v-45.792969c0-32.238281-26.230468-58.46875-58.46875-58.46875-24.996094 0-46.375 15.765625-54.722656 37.871094-8.386719-9.617188-20.726562-15.707032-34.457031-15.707032h-7.5v7.5c0 22.390626 16.179687 41.074219 37.460937 44.96875-2.441406 10.839844-10.632812 19.527344-21.1875 22.679688 1.292969-4.34375 3.546875-8.375 6.636719-11.800781l-11.128906-10.054688c-7.597657 8.410157-11.78125 19.289063-11.78125 30.632813v7.5h7.5c11.8125 0 22.589843-4.503906 30.710937-11.882813v2.554688l21.402344 21.402343h-45.09375l-24.28125 24.28125v101.804688h43.449219zm-17.410157-348.03125c9.886719 2.953126 17.703126 10.765626 20.65625 20.65625-9.890624-2.957031-17.703124-10.769531-20.65625-20.65625zm36.933594 20.023438c0-23.96875 19.5-43.46875 43.46875-43.46875s43.46875 19.5 43.46875 43.46875v39.582031l-27.613281 27.609375h-31.710937l-27.613282-27.609375zm-47.972656 178.28125v-80.589844l15.496094-15.496094h35.4375l23.234375 43.65625 13.242187-7.046874-19.484375-36.609376h47.023438l-19.484375 36.609376 13.242187 7.046874 23.234375-43.65625h35.4375l15.5 15.496094v80.589844h-43.441406v-20.953125h-15v20.953125h-25.496094v-23.496094l4.957032-4.957031h50.535156l-.007813-30.570313-15 .003907.003907 15.566406h-41.746094l-6.242188 6.246094-6.242187-6.246094h-41.75v-15.566406h-15v30.566406h50.535156l4.957031 4.957031v23.496094h-25.503906v-20.949219h-15v20.949219zm0 0" fill="#000000" style="fill: rgb(52, 50, 50);"></path></svg>